<mxfile host="Electron" modified="2024-09-25T15:00:42.258Z" agent="Mozilla/5.0 (Windows NT 10.0; Win64; x64) AppleWebKit/537.36 (KHTML, like Gecko) draw.io/22.1.2 Chrome/114.0.5735.289 Electron/25.9.4 Safari/537.36" etag="l-dsnlqp2dFiht-wRXYA" version="22.1.2" type="device">
  <diagram name="Page-1" id="L-tTfl24gEWTkH9U6lPc">
    <mxGraphModel dx="1195" dy="737" grid="1" gridSize="10" guides="1" tooltips="1" connect="1" arrows="1" fold="1" page="1" pageScale="1" pageWidth="1920" pageHeight="1200" math="0" shadow="0">
      <root>
        <mxCell id="0" />
        <mxCell id="1" parent="0" />
        <mxCell id="xv7HqC6G87R-9mC8mufZ-1" value="" style="endArrow=none;dashed=1;html=1;rounded=0;" edge="1" parent="1">
          <mxGeometry width="50" height="50" relative="1" as="geometry">
            <mxPoint x="575" y="600" as="sourcePoint" />
            <mxPoint x="1395" y="600" as="targetPoint" />
          </mxGeometry>
        </mxCell>
        <mxCell id="xv7HqC6G87R-9mC8mufZ-2" value="Game" style="text;html=1;align=center;verticalAlign=middle;resizable=0;points=[];autosize=1;strokeColor=none;fillColor=none;" vertex="1" parent="1">
          <mxGeometry x="525" y="570" width="60" height="30" as="geometry" />
        </mxCell>
        <mxCell id="xv7HqC6G87R-9mC8mufZ-3" value="Engine" style="text;html=1;align=center;verticalAlign=middle;resizable=0;points=[];autosize=1;strokeColor=none;fillColor=none;" vertex="1" parent="1">
          <mxGeometry x="525" y="600" width="60" height="30" as="geometry" />
        </mxCell>
        <mxCell id="xv7HqC6G87R-9mC8mufZ-4" value="Logging" style="rounded=1;whiteSpace=wrap;html=1;" vertex="1" parent="1">
          <mxGeometry x="760" y="640" width="120" height="60" as="geometry" />
        </mxCell>
        <mxCell id="xv7HqC6G87R-9mC8mufZ-5" value="Template Library" style="rounded=1;whiteSpace=wrap;html=1;" vertex="1" parent="1">
          <mxGeometry x="600" y="640" width="120" height="60" as="geometry" />
        </mxCell>
        <mxCell id="xv7HqC6G87R-9mC8mufZ-6" value="File API" style="rounded=1;whiteSpace=wrap;html=1;" vertex="1" parent="1">
          <mxGeometry x="1080" y="640" width="120" height="60" as="geometry" />
        </mxCell>
        <mxCell id="xv7HqC6G87R-9mC8mufZ-7" value="Thread API" style="rounded=1;whiteSpace=wrap;html=1;" vertex="1" parent="1">
          <mxGeometry x="920" y="640" width="120" height="60" as="geometry" />
        </mxCell>
        <mxCell id="xv7HqC6G87R-9mC8mufZ-8" value="Networking" style="rounded=1;whiteSpace=wrap;html=1;" vertex="1" parent="1">
          <mxGeometry x="1240" y="640" width="120" height="60" as="geometry" />
        </mxCell>
        <mxCell id="xv7HqC6G87R-9mC8mufZ-9" value="Debugging" style="rounded=1;whiteSpace=wrap;html=1;" vertex="1" parent="1">
          <mxGeometry x="600" y="740" width="120" height="60" as="geometry" />
        </mxCell>
        <mxCell id="xv7HqC6G87R-9mC8mufZ-10" value="Error Handling" style="rounded=1;whiteSpace=wrap;html=1;" vertex="1" parent="1">
          <mxGeometry x="760" y="740" width="120" height="60" as="geometry" />
        </mxCell>
        <mxCell id="xv7HqC6G87R-9mC8mufZ-11" value="Rendering" style="rounded=1;whiteSpace=wrap;html=1;" vertex="1" parent="1">
          <mxGeometry x="920" y="740" width="120" height="60" as="geometry" />
        </mxCell>
        <mxCell id="xv7HqC6G87R-9mC8mufZ-13" value="ECS" style="rounded=1;whiteSpace=wrap;html=1;" vertex="1" parent="1">
          <mxGeometry x="1080" y="740" width="120" height="60" as="geometry" />
        </mxCell>
        <mxCell id="xv7HqC6G87R-9mC8mufZ-14" value="Scene/Grid Managements" style="rounded=1;whiteSpace=wrap;html=1;" vertex="1" parent="1">
          <mxGeometry x="1240" y="740" width="120" height="60" as="geometry" />
        </mxCell>
        <mxCell id="xv7HqC6G87R-9mC8mufZ-15" value="Memory Allocators" style="rounded=1;whiteSpace=wrap;html=1;" vertex="1" parent="1">
          <mxGeometry x="600" y="840" width="120" height="60" as="geometry" />
        </mxCell>
        <mxCell id="xv7HqC6G87R-9mC8mufZ-16" value="Creatures" style="rounded=1;whiteSpace=wrap;html=1;" vertex="1" parent="1">
          <mxGeometry x="600" y="200" width="120" height="60" as="geometry" />
        </mxCell>
        <mxCell id="xv7HqC6G87R-9mC8mufZ-17" value="Crafting System" style="rounded=1;whiteSpace=wrap;html=1;" vertex="1" parent="1">
          <mxGeometry x="600" y="300" width="120" height="60" as="geometry" />
        </mxCell>
        <mxCell id="xv7HqC6G87R-9mC8mufZ-18" value="Inventory System" style="rounded=1;whiteSpace=wrap;html=1;" vertex="1" parent="1">
          <mxGeometry x="600" y="400" width="120" height="60" as="geometry" />
        </mxCell>
        <mxCell id="xv7HqC6G87R-9mC8mufZ-20" value="Inventory System" style="rounded=1;whiteSpace=wrap;html=1;" vertex="1" parent="1">
          <mxGeometry x="600" y="500" width="120" height="60" as="geometry" />
        </mxCell>
        <mxCell id="xv7HqC6G87R-9mC8mufZ-21" value="Materials" style="rounded=1;whiteSpace=wrap;html=1;" vertex="1" parent="1">
          <mxGeometry x="760" y="200" width="120" height="60" as="geometry" />
        </mxCell>
        <mxCell id="xv7HqC6G87R-9mC8mufZ-22" value="Job System" style="rounded=1;whiteSpace=wrap;html=1;" vertex="1" parent="1">
          <mxGeometry x="760" y="300" width="120" height="60" as="geometry" />
        </mxCell>
        <mxCell id="xv7HqC6G87R-9mC8mufZ-23" value="Computer System" style="rounded=1;whiteSpace=wrap;html=1;" vertex="1" parent="1">
          <mxGeometry x="760" y="400" width="120" height="60" as="geometry" />
        </mxCell>
        <mxCell id="xv7HqC6G87R-9mC8mufZ-25" value="Emulated Networking" style="rounded=1;whiteSpace=wrap;html=1;" vertex="1" parent="1">
          <mxGeometry x="760" y="500" width="120" height="60" as="geometry" />
        </mxCell>
        <mxCell id="xv7HqC6G87R-9mC8mufZ-26" value="Goal Oriented Action Planning" style="rounded=1;whiteSpace=wrap;html=1;" vertex="1" parent="1">
          <mxGeometry x="920" y="200" width="120" height="60" as="geometry" />
        </mxCell>
        <mxCell id="xv7HqC6G87R-9mC8mufZ-27" value="A* Path Finding" style="rounded=1;whiteSpace=wrap;html=1;" vertex="1" parent="1">
          <mxGeometry x="920" y="300" width="120" height="60" as="geometry" />
        </mxCell>
        <mxCell id="xv7HqC6G87R-9mC8mufZ-28" value="Chemical Level Balancing" style="rounded=1;whiteSpace=wrap;html=1;" vertex="1" parent="1">
          <mxGeometry x="920" y="400" width="120" height="60" as="geometry" />
        </mxCell>
        <mxCell id="xv7HqC6G87R-9mC8mufZ-30" value="Material Value System" style="rounded=1;whiteSpace=wrap;html=1;" vertex="1" parent="1">
          <mxGeometry x="920" y="500" width="120" height="60" as="geometry" />
        </mxCell>
        <mxCell id="xv7HqC6G87R-9mC8mufZ-31" value="Robotics/Device Construction" style="rounded=1;whiteSpace=wrap;html=1;" vertex="1" parent="1">
          <mxGeometry x="1080" y="200" width="120" height="60" as="geometry" />
        </mxCell>
        <mxCell id="xv7HqC6G87R-9mC8mufZ-32" value="Robotics/Device Construction" style="rounded=1;whiteSpace=wrap;html=1;" vertex="1" parent="1">
          <mxGeometry x="1080" y="300" width="120" height="60" as="geometry" />
        </mxCell>
      </root>
    </mxGraphModel>
  </diagram>
</mxfile>
